<svg width="70" height="71" viewBox="0 0 70 71" fill="none" xmlns="http://www.w3.org/2000/svg">
<path d="M42.203 1.54214C45.162 -0.78709 49.5807 1.01356 49.9783 4.7106L51.7253 20.9578C51.8762 22.3608 52.6632 23.6231 53.8688 24.3956L67.8298 33.3419C71.0066 35.3776 70.6231 40.0488 67.1549 41.5615L51.9135 48.209C50.5973 48.783 49.6144 49.906 49.2366 51.2674L44.8611 67.0326C43.8654 70.62 39.2097 71.7063 36.6687 68.9441L25.5019 56.8053C24.5376 55.7571 23.1431 55.1888 21.704 55.2577L5.03878 56.0548C1.2466 56.2362 -1.24728 52.2364 0.650486 49.0167L8.99047 34.867C9.71066 33.6451 9.83171 32.1709 9.32013 30.8521L3.39597 15.5795C2.04793 12.1042 5.1624 8.5459 8.87627 9.31816L25.1974 12.712C26.6068 13.005 28.0761 12.6622 29.199 11.7783L42.203 1.54214Z" fill="black"/>
<path d="M32.0614 45.6493C30.1364 45.6493 28.4129 45.2109 26.8909 44.3343C25.3688 43.4576 24.1825 42.2522 23.3319 40.7181C22.4814 39.1401 22.0561 37.3868 22.0561 35.4582C22.0561 33.5734 22.4814 31.8859 23.3319 30.3956C24.1825 28.9053 25.3688 27.7437 26.8909 26.9109C28.4129 26.0342 30.1364 25.5959 32.0614 25.5959C33.3148 25.5959 34.434 25.7932 35.4189 26.1876C36.4037 26.5821 37.2543 27.13 37.9706 27.8314V18.6265C37.9706 17.8814 38.1944 17.3335 38.6421 16.9828C39.1345 16.5883 39.6717 16.3911 40.2537 16.3911C40.8356 16.3911 41.3504 16.5883 41.7981 16.9828C42.2905 17.3335 42.5368 17.8814 42.5368 18.6265V43.611C42.5368 44.2685 42.2905 44.7726 41.7981 45.1233C41.3504 45.4739 40.8356 45.6493 40.2537 45.6493C39.6717 45.6493 39.1345 45.4739 38.6421 45.1233C38.1944 44.7726 37.9706 44.2685 37.9706 43.611V43.348C37.2543 44.0494 36.4037 44.5973 35.4189 44.9918C34.434 45.4301 33.3148 45.6493 32.0614 45.6493ZM32.4643 41.5728C34.1654 41.5728 35.5084 41.0249 36.4933 39.9291C37.4781 38.7895 37.9706 37.2992 37.9706 35.4582C37.9706 33.7049 37.4781 32.3023 36.4933 31.2503C35.5084 30.1983 34.1654 29.6723 32.4643 29.6723C30.7184 29.6723 29.3082 30.1983 28.2338 31.2503C27.1595 32.3023 26.6223 33.7049 26.6223 35.4582C26.6223 37.2992 27.1595 38.7895 28.2338 39.9291C29.3082 41.0249 30.7184 41.5728 32.4643 41.5728Z" fill="white"/>
</svg>
