<svg width="340" height="252" viewBox="0 0 340 252" fill="none" xmlns="http://www.w3.org/2000/svg">
<mask id="mask0_1799_10500" style="mask-type:alpha" maskUnits="userSpaceOnUse" x="0" y="0" width="340" height="252">
<rect width="340" height="252" fill="#D9D9D9"/>
</mask>
<g mask="url(#mask0_1799_10500)">
<path d="M204.986 -89.834C219.358 -101.38 240.821 -92.4542 242.752 -74.1275L251.237 6.41219C251.97 13.3671 255.793 19.6244 261.648 23.4541L329.459 67.802C344.889 77.8934 343.026 101.049 326.181 108.548L252.151 141.5C245.758 144.346 240.984 149.913 239.149 156.661L217.897 234.812C213.061 252.595 190.447 257.98 178.105 244.287L123.866 184.114C119.183 178.917 112.41 176.1 105.42 176.442L24.4741 180.393C6.05493 181.292 -6.0582 161.465 3.1595 145.504L43.668 75.3619C47.1661 69.3048 47.754 61.9972 45.2692 55.4595L16.4947 -20.2488C9.94711 -37.4762 25.0745 -55.1153 43.1133 -51.2871L122.387 -34.4636C129.233 -33.0108 136.37 -34.7102 141.824 -39.092L204.986 -89.834Z" fill="white"/>
<path d="M155.727 128.811C146.377 128.811 138.006 126.638 130.613 122.293C123.22 117.947 117.458 111.972 113.326 104.367C109.195 96.5447 107.129 87.8533 107.129 78.2928C107.129 68.9496 109.195 60.5842 113.326 53.1965C117.458 45.8089 123.22 40.0509 130.613 35.9225C138.006 31.5768 146.377 29.404 155.727 29.404C161.815 29.404 167.251 30.3818 172.035 32.3373C176.818 34.2929 180.949 37.0089 184.428 40.4855V-5.14411C184.428 -8.83793 185.516 -11.554 187.69 -13.2923C190.082 -15.2478 192.691 -16.2256 195.518 -16.2256C198.344 -16.2256 200.845 -15.2478 203.019 -13.2923C205.411 -11.554 206.607 -8.83793 206.607 -5.14411V118.708C206.607 121.967 205.411 124.466 203.019 126.204C200.845 127.942 198.344 128.811 195.518 128.811C192.691 128.811 190.082 127.942 187.69 126.204C185.516 124.466 184.428 121.967 184.428 118.708V117.404C180.949 120.88 176.818 123.596 172.035 125.552C167.251 127.725 161.815 128.811 155.727 128.811ZM157.684 108.604C165.946 108.604 172.469 105.888 177.253 100.456C182.037 94.8064 184.428 87.4187 184.428 78.2928C184.428 69.6015 182.037 62.6484 177.253 57.4336C172.469 52.2188 165.946 49.6114 157.684 49.6114C149.204 49.6114 142.354 52.2188 137.136 57.4336C131.917 62.6484 129.308 69.6015 129.308 78.2928C129.308 87.4187 131.917 94.8064 137.136 100.456C142.354 105.888 149.204 108.604 157.684 108.604Z" fill="black"/>
</g>
</svg>
