<svg width="30" height="30" viewBox="0 0 30 30" fill="none" xmlns="http://www.w3.org/2000/svg">
<path d="M30 15C30 23.2843 23.2843 30 15 30C6.71573 30 0 23.2843 0 15C0 6.71573 6.71573 0 15 0C23.2843 0 30 6.71573 30 15Z" fill="white"/>
<path d="M11 6C8.243 6 6 8.243 6 11V19C6 21.757 8.243 24 11 24H19C21.757 24 24 21.757 24 19V11C24 8.243 21.757 6 19 6H11ZM11 8H19C20.654 8 22 9.346 22 11V19C22 20.654 20.654 22 19 22H11C9.346 22 8 20.654 8 19V11C8 9.346 9.346 8 11 8ZM20 9C19.7348 9 19.4804 9.10536 19.2929 9.29289C19.1054 9.48043 19 9.73478 19 10C19 10.2652 19.1054 10.5196 19.2929 10.7071C19.4804 10.8946 19.7348 11 20 11C20.2652 11 20.5196 10.8946 20.7071 10.7071C20.8946 10.5196 21 10.2652 21 10C21 9.73478 20.8946 9.48043 20.7071 9.29289C20.5196 9.10536 20.2652 9 20 9ZM15 10C12.243 10 10 12.243 10 15C10 17.757 12.243 20 15 20C17.757 20 20 17.757 20 15C20 12.243 17.757 10 15 10ZM15 12C16.654 12 18 13.346 18 15C18 16.654 16.654 18 15 18C13.346 18 12 16.654 12 15C12 13.346 13.346 12 15 12Z" fill="black"/>
</svg>
