<svg width="30" height="30" viewBox="0 0 30 30" fill="none" xmlns="http://www.w3.org/2000/svg">
<path d="M30 15C30 23.2843 23.2843 30 15 30C6.71573 30 0 23.2843 0 15C0 6.71573 6.71573 0 15 0C23.2843 0 30 6.71573 30 15Z" fill="white"/>
<path d="M16.6 9C15.0873 9 13.66 9.78718 12.82 11.0625V19.9999H21.85C23.5727 19.9999 25 18.5046 25 16.7C25 14.8953 23.5727 13.4 21.85 13.4C21.64 13.4 21.43 13.4378 21.22 13.4825C21.01 10.9748 19.0363 9 16.6 9ZM11.14 11.2C10.8463 11.2 10.5527 11.2378 10.3 11.2825V19.9999H11.14V11.2ZM11.56 11.2V19.9999H12.4V11.42C12.1473 11.3323 11.8537 11.2447 11.56 11.2ZM9.88 11.42C9.58633 11.5523 9.29266 11.6847 9.04 11.86V19.9999H9.88V11.42ZM8.62 12.2175C8.28367 12.5251 7.99 12.9187 7.78 13.3587V19.9999H8.62V12.2175ZM6.73 13.84C6.65617 13.8451 6.58234 13.8589 6.52 13.8812V19.9587C6.64633 20.0034 6.81367 19.9999 6.94 19.9999H7.36V13.8812C7.23367 13.8365 7.06633 13.84 6.94 13.84C6.87766 13.84 6.80383 13.8348 6.73 13.84ZM6.1 13.9775C5.80633 14.0651 5.51266 14.1975 5.26 14.4175V19.4224C5.51266 19.5978 5.80633 19.7748 6.1 19.8624V13.9775ZM4.84 14.7612C4.33633 15.3336 4 16.0846 4 16.92C4 17.7553 4.33633 18.5064 4.84 19.0787V14.7612Z" fill="black"/>
</svg>
