<svg width="30" height="30" viewBox="0 0 30 30" fill="none" xmlns="http://www.w3.org/2000/svg">
<path d="M30 15C30 23.2843 23.2843 30 15 30C6.71573 30 0 23.2843 0 15C0 6.71573 6.71573 0 15 0C23.2843 0 30 6.71573 30 15Z" fill="white"/>
<path d="M23.3666 11.1484C23.2109 10.2894 22.4694 9.66376 21.6088 9.46844C20.3209 9.19531 17.9375 9 15.3588 9C12.7816 9 10.36 9.19531 9.07062 9.46844C8.21155 9.66376 7.46844 10.2497 7.31281 11.1484C7.15564 12.125 7 13.4922 7 15.25C7 17.0078 7.15564 18.375 7.35095 19.3516C7.50812 20.2106 8.24969 20.8362 9.10876 21.0316C10.476 21.3047 12.8197 21.5 15.3984 21.5C17.9772 21.5 20.3209 21.3047 21.6881 21.0316C22.5472 20.8362 23.2888 20.2503 23.4459 19.3516C23.6016 18.375 23.7969 16.9681 23.8365 15.25C23.7572 13.4922 23.5619 12.125 23.3666 11.1484ZM13.25 17.9844V12.5156L18.0153 15.25L13.25 17.9844Z" fill="black"/>
</svg>
