<svg width="30" height="30" viewBox="0 0 30 30" fill="none" xmlns="http://www.w3.org/2000/svg">
<path d="M27 15C27 21.6274 21.6274 27 15 27C8.37258 27 3 21.6274 3 15C3 8.37258 8.37258 3 15 3C21.6274 3 27 8.37258 27 15Z" fill="white"/>
<path d="M17.5047 14.7391L13.9953 13.1016C13.6891 12.9594 13.4375 13.1187 13.4375 13.4578V16.5422C13.4375 16.8813 13.6891 17.0406 13.9953 16.8984L17.5031 15.2609C17.8109 15.1172 17.8109 14.8828 17.5047 14.7391ZM15 0C6.71562 0 0 6.71563 0 15C0 23.2844 6.71562 30 15 30C23.2844 30 30 23.2844 30 15C30 6.71563 23.2844 0 15 0ZM15 21.0937C7.32187 21.0937 7.1875 20.4016 7.1875 15C7.1875 9.59844 7.32187 8.90625 15 8.90625C22.6781 8.90625 22.8125 9.59844 22.8125 15C22.8125 20.4016 22.6781 21.0937 15 21.0937Z" fill="black"/>
</svg>
